Coordinates
version=1
nRows=5
nColumns=40
inDegrees=yes

Units are S.I. units (second, meters, Newtons, ...)
Angles are in degrees.

endheader
time	pelvis_tilt	pelvis_list	pelvis_rotation	pelvis_tx	pelvis_ty	pelvis_tz	hip_flexion_r	hip_adduction_r	hip_rotation_r	knee_angle_r	knee_angle_r_beta	ankle_angle_r	subtalar_angle_r	mtp_angle_r	hip_flexion_l	hip_adduction_l	hip_rotation_l	knee_angle_l	knee_angle_l_beta	ankle_angle_l	subtalar_angle_l	mtp_angle_l	lumbar_extension	lumbar_bending	lumbar_rotation	arm_flex_r	arm_add_r	arm_rot_r	elbow_flex_r	pro_sup_r	wrist_flex_r	wrist_dev_r	arm_flex_l	arm_add_l	arm_rot_l	elbow_flex_l	pro_sup_l	wrist_flex_l	wrist_dev_l
     19.29250000	     -2.15974383	     -4.75845937	     -0.22867672	      1.04472797	      0.90692616	      0.39176930	     26.07393362	     -6.12973294	      1.10304621	     67.26568152	     67.26568152	      1.32019895	    -12.53136269	     -6.17834286	     21.75475999	     -1.54022783	     -1.72531836	     38.24462606	     38.24462606	     22.55131477	    -18.80972109	     11.99280384	    -12.11902687	      6.95433254	      2.71221802	      8.82225542	    -12.98345790	    -10.06751858	     22.99406840	     47.01565172	      0.00000000	      0.00000000	     27.68007951	    -13.99820634	     20.33781605	     35.39897317	     44.99852372	      0.00000000	      0.00000000
     19.31557143	     -2.11099925	     -4.89929304	     -1.23504354	      1.04271863	      0.90789171	      0.39165961	     27.45775278	     -5.82679031	      1.56765899	     67.14665776	     67.14665776	      1.62665664	    -12.78907546	     -5.32695243	     21.19502419	     -1.88617064	     -2.46292056	     37.90085536	     37.90085536	     22.81471488	    -18.84710297	     12.32713611	    -12.34097461	      7.24616149	      2.41285607	      5.77927221	    -13.04503802	    -10.20722190	     22.08140562	     47.03793855	      0.00000000	      0.00000000	     29.81214393	    -14.99089031	     19.39034233	     36.53071655	     45.15375439	      0.00000000	      0.00000000
     19.33864286	     -2.25469644	     -5.12310684	     -2.23167931	      1.04035559	      0.90941034	      0.39208755	     28.71065321	     -5.47191207	      1.69311731	     65.94193642	     65.94193642	      2.18779228	    -12.73947554	     -5.27923959	     20.73665628	     -2.35233034	     -3.20801899	     37.31124532	     37.31124532	     22.84864618	    -18.87987054	     12.51919845	    -12.36333070	      7.57303380	      1.50166065	      3.29652235	    -13.00698572	    -10.29046321	     21.30854849	     47.05402645	      0.00000000	      0.00000000	     31.77554433	    -16.51724308	     18.78882310	     37.04994365	     45.24878234	      0.00000000	      0.00000000
     19.36171429	     -2.51697354	     -5.27996860	     -3.32011717	      1.03772970	      0.91155255	      0.39313944	     29.80324161	     -5.01098754	      1.84202664	     63.74154708	     63.74154708	      2.93264877	    -12.74791782	     -5.26904109	     20.17510658	     -2.79230059	     -4.06692577	     36.28707398	     36.28707398	     22.73828554	    -18.85122483	     12.82591222	    -12.37858173	      7.72785382	      1.26706274	      0.55204210	    -12.99179380	    -10.38482902	     20.60738772	     47.06484625	      0.00000000	      0.00000000	     33.87954208	    -17.72852259	     17.90051591	     38.07753192	     45.38398913	      0.00000000	      0.00000000
     19.38478571	     -2.80279411	     -5.42556063	     -4.51401732	      1.03490603	      0.91417993	      0.39467385	     30.47494435	     -4.48366292	      1.89728075	     60.32160038	     60.32160038	      3.03179895	    -12.90086644	     -7.65378145	     19.48439979	     -3.27499137	     -5.10352075	     34.98478310	     34.98478310	     22.32558761	    -18.83877174	     12.64126607	    -12.60244922	      7.86579367	      1.78957298	     -3.77404671	    -13.09714661	    -11.13061366	     23.90715371	     46.91927747	      0.00000000	      0.00000000	     35.27680167	    -17.65641058	     11.64302948	     41.45742694	     46.15800500	      0.00000000	      0.00000000
